P3
20 20
255
255 63 63
255 63 63
255 63 63
255 63 63
255 63 63
255 63 63
255 63 63
255 63 63
255 63 63
255 63 63
255 63 63
255 63 63
255 63 63
255 63 63
255 63 63
255 63 63
255 63 63
255 63 63
255 63 63
255 63 63
0 0 0
255 63 63
255 63 63
255 63 63
255 63 63
255 63 63
255 63 63
255 63 63
255 63 63
255 63 63
255 63 63
255 63 63
255 63 63
255 63 63
255 63 63
255 63 63
255 63 63
255 63 63
255 63 63
255 63 63
0 0 0
255 63 63
255 63 63
255 63 63
255 63 63
255 63 63
255 63 63
255 63 63
255 63 63
255 63 63
255 63 63
255 63 63
255 63 63
255 63 63
255 63 63
255 63 63
255 63 63
255 63 63
255 63 63
255 63 63
0 0 0
255 63 63
255 63 63
255 63 63
255 63 63
255 63 63
255 63 63
255 63 63
255 63 63
255 63 63
255 63 63
255 63 63
255 63 63
255 63 63
255 63 63
255 63 63
255 63 63
255 63 63
255 63 63
255 63 63
0 0 0
255 63 63
255 63 63
255 63 63
255 63 63
0 0 255
255 63 63
255 63 63
255 63 63
255 63 63
255 63 63
255 63 63
255 63 63
255 63 63
255 63 63
255 63 63
255 63 63
255 63 63
255 63 63
255 63 63
0 0 0
255 63 63
255 63 63
255 63 63
255 63 63
0 0 255
255 63 63
255 63 63
255 63 63
255 63 63
255 63 63
255 63 63
255 63 63
255 63 63
255 63 63
255 63 63
255 63 63
255 63 63
255 63 63
255 63 63
0 0 0
255 63 63
255 63 63
255 63 63
255 63 63
0 0 255
255 63 63
255 63 63
255 63 63
255 63 63
255 63 63
255 63 63
255 63 63
255 63 63
255 63 63
255 63 63
255 63 63
255 63 63
255 63 63
255 63 63
0 0 0
255 63 63
255 63 63
255 63 63
255 63 63
0 0 255
255 63 63
255 63 63
255 63 63
255 63 63
255 63 63
255 63 63
255 63 63
255 63 63
255 63 63
255 63 63
255 63 63
255 63 63
255 63 63
255 63 63
0 0 0
255 63 63
255 63 63
255 63 63
255 63 63
255 63 63
0 0 255
255 63 63
255 63 63
255 63 63
255 63 63
255 63 63
255 63 63
255 63 63
255 63 63
255 63 63
255 63 63
255 63 63
255 63 63
255 63 63
0 0 0
255 63 63
255 63 63
255 63 63
255 63 63
255 63 63
0 0 255
255 63 63
255 63 63
255 63 63
255 63 63
255 63 63
255 63 63
255 63 63
255 63 63
255 63 63
255 63 63
255 63 63
255 63 63
255 63 63
0 0 0
255 63 63
255 63 63
255 63 63
255 63 63
255 63 63
0 0 255
255 63 63
255 63 63
255 63 63
255 63 63
255 63 63
255 63 63
255 63 63
255 63 63
255 63 63
255 63 63
255 63 63
255 63 63
255 63 63
0 0 0
255 63 63
255 63 63
255 63 63
255 63 63
255 63 63
0 0 255
255 63 63
255 63 63
255 63 63
255 63 63
255 63 63
255 63 63
255 63 63
255 63 63
255 63 63
255 63 63
255 63 63
255 63 63
255 63 63
0 0 0
255 63 63
255 63 63
255 63 63
255 63 63
255 63 63
0 0 255
255 63 63
255 63 63
255 63 63
255 63 63
255 63 63
255 63 63
255 63 63
255 63 63
255 63 63
255 63 63
255 63 63
255 63 63
255 63 63
0 0 0
255 63 63
255 63 63
255 63 63
255 63 63
255 63 63
0 0 255
255 63 63
255 63 63
255 63 63
255 63 63
255 63 63
255 63 63
255 63 63
255 63 63
255 63 63
255 63 63
0 255 0
0 255 0
255 63 63
0 0 0
255 63 63
255 63 63
255 63 63
255 63 63
255 63 63
0 0 255
255 63 63
255 63 63
255 63 63
255 63 63
255 63 63
255 63 63
0 255 0
0 255 0
0 255 0
0 255 0
255 63 63
255 63 63
255 63 63
0 0 0
255 63 63
255 63 63
255 63 63
255 63 63
255 63 63
255 63 63
0 0 255
255 63 63
255 63 63
0 255 0
0 255 0
0 255 0
255 63 63
255 63 63
255 63 63
255 63 63
255 63 63
255 63 63
255 63 63
0 0 0
255 63 63
255 63 63
255 63 63
255 63 63
255 63 63
0 255 0
0 255 0
0 255 0
0 255 0
255 63 63
255 63 63
255 63 63
255 63 63
255 63 63
255 63 63
255 63 63
255 63 63
255 63 63
255 63 63
255 63 63
255 63 63
255 63 63
255 63 63
0 255 0
0 255 0
255 63 63
0 0 255
255 63 63
255 63 63
255 63 63
255 63 63
255 63 63
255 63 63
255 63 63
255 63 63
255 63 63
255 63 63
255 63 63
255 63 63
255 63 63
255 63 63
255 63 63
255 63 63
255 63 63
255 63 63
255 63 63
0 0 255
255 63 63
255 63 63
255 63 63
255 63 63
255 63 63
255 63 63
255 63 63
255 63 63
255 63 63
255 63 63
255 63 63
255 63 63
255 63 63
255 63 63
255 63 63
255 63 63
255 63 63
255 63 63
255 63 63
255 63 63
255 63 63
255 63 63
255 255 255
255 63 63
255 63 63
255 63 63
255 63 63
255 63 63
255 63 63
255 63 63
255 63 63
255 63 63
