P3
20 20
255
255 63 63
255 63 63
255 63 63
255 63 63
255 63 63
255 63 63
255 63 63
255 63 63
255 63 63
255 63 63
255 63 63
255 63 63
255 63 63
255 63 63
255 63 63
255 63 63
255 63 63
255 63 63
255 63 63
255 63 63
255 63 63
255 63 63
255 63 63
255 63 63
255 63 63
255 63 63
255 63 63
255 63 63
255 63 63
255 63 63
255 63 63
255 63 63
255 63 63
255 63 63
255 63 63
255 63 63
255 63 63
255 63 63
255 63 63
255 63 63
255 63 63
255 63 63
255 63 63
255 63 63
255 63 63
255 63 63
255 63 63
255 63 63
255 63 63
255 63 63
255 63 63
255 63 63
255 63 63
255 63 63
255 63 63
255 63 63
255 63 63
255 63 63
255 63 63
255 63 63
255 63 63
255 63 63
255 63 63
255 63 63
255 63 63
255 63 63
255 63 63
255 63 63
255 63 63
255 63 63
255 63 63
255 63 63
255 63 63
255 63 63
255 63 63
255 63 63
255 63 63
255 63 63
255 63 63
255 63 63
255 63 63
255 63 63
255 63 63
255 63 63
255 63 63
255 63 63
255 63 63
255 63 63
255 63 63
255 63 63
255 63 63
255 63 63
255 63 63
255 63 63
255 63 63
255 63 63
255 63 63
255 63 63
255 63 63
255 63 63
255 63 63
255 63 63
255 63 63
255 63 63
255 63 63
255 63 63
255 63 63
255 63 63
255 63 63
255 63 63
255 63 63
255 63 63
255 63 63
255 63 63
255 63 63
255 63 63
255 63 63
255 63 63
255 63 63
255 63 63
255 63 63
255 63 63
255 63 63
255 63 63
255 63 63
255 63 63
255 63 63
255 63 63
255 63 63
255 63 63
255 63 63
255 63 63
255 63 63
255 63 63
255 63 63
255 63 63
255 63 63
255 63 63
255 63 63
255 63 63
255 63 63
255 63 63
255 63 63
255 63 63
255 63 63
255 63 63
255 63 63
255 63 63
255 63 63
255 63 63
255 63 63
255 63 63
255 63 63
255 63 63
255 63 63
255 63 63
255 63 63
255 63 63
255 63 63
255 63 63
255 63 63
255 63 63
255 63 63
255 63 63
255 63 63
255 63 63
255 63 63
255 63 63
255 63 63
255 63 63
255 63 63
255 63 63
255 63 63
255 63 63
255 63 63
255 63 63
255 63 63
255 63 63
255 63 63
255 63 63
255 63 63
255 63 63
255 63 63
255 63 63
255 63 63
255 63 63
255 63 63
255 63 63
255 63 63
255 63 63
255 63 63
255 63 63
255 63 63
255 63 63
255 63 63
255 63 63
255 63 63
255 63 63
255 63 63
255 63 63
255 63 63
255 63 63
255 63 63
255 63 63
255 63 63
255 63 63
255 63 63
255 63 63
255 63 63
255 63 63
255 63 63
255 63 63
255 63 63
255 63 63
255 63 63
255 63 63
255 63 63
255 63 63
255 63 63
255 63 63
255 63 63
255 63 63
255 63 63
255 63 63
255 63 63
255 63 63
255 63 63
255 63 63
255 63 63
255 63 63
255 63 63
255 63 63
255 63 63
255 63 63
255 63 63
255 63 63
255 63 63
255 63 63
255 63 63
255 63 63
255 63 63
255 63 63
255 63 63
255 63 63
255 63 63
255 63 63
255 63 63
255 63 63
255 63 63
255 63 63
255 63 63
255 63 63
255 63 63
255 63 63
0 127 255
0 127 255
0 127 255
0 127 255
0 127 255
255 63 63
255 63 63
255 63 63
255 63 63
255 63 63
255 63 63
0 127 255
0 127 255
0 127 255
0 127 255
0 127 255
0 127 255
0 127 255
0 127 255
0 127 255
255 63 63
255 63 63
255 63 63
255 63 63
255 63 63
255 63 63
0 127 255
0 127 255
0 127 255
0 127 255
0 127 255
255 63 63
255 63 63
255 63 63
255 63 63
255 63 63
255 63 63
255 63 63
255 63 63
255 63 63
255 63 63
255 63 63
255 63 63
255 63 63
255 63 63
255 63 63
255 63 63
255 63 63
255 63 63
255 63 63
255 63 63
255 63 63
255 63 63
255 63 63
255 63 63
255 63 63
255 63 63
255 63 63
255 63 63
255 63 63
255 63 63
255 63 63
255 63 63
255 63 63
255 63 63
255 63 63
255 63 63
255 63 63
255 63 63
255 63 63
255 63 63
255 63 63
255 63 63
255 63 63
255 63 63
255 63 63
255 63 63
255 63 63
255 63 63
255 63 63
255 63 63
255 63 63
255 63 63
255 63 63
255 63 63
255 63 63
255 63 63
255 63 63
255 63 63
255 63 63
255 63 63
255 63 63
255 63 63
255 63 63
255 63 63
255 63 63
255 63 63
255 63 63
255 63 63
255 63 63
255 63 63
255 63 63
255 63 63
255 63 63
255 63 63
255 63 63
255 63 63
255 63 63
255 63 63
255 63 63
255 63 63
255 63 63
255 63 63
255 63 63
255 63 63
255 63 63
255 63 63
255 63 63
255 63 63
255 63 63
255 63 63
255 63 63
255 63 63
255 63 63
255 63 63
255 63 63
255 63 63
255 63 63
255 63 63
0 127 255
255 63 63
255 63 63
255 63 63
255 63 63
255 63 63
255 63 63
255 63 63
255 63 63
255 63 63
255 63 63
255 63 63
255 63 63
255 63 63
255 63 63
255 63 63
255 63 63
